<svg xmlns="http://www.w3.org/2000/svg" viewBox="0 0 1920 1080">
  <rect width="1920" height="1080" fill="#0f172a"/>
  <!-- K8s cluster outline -->
  <rect x="200" y="100" width="1520" height="880" rx="20" fill="none" stroke="#326ce5" stroke-width="2" opacity="0.4" stroke-dasharray="10,5"/>
  <text x="960" y="80" font-family="monospace" font-size="14" fill="#326ce5" text-anchor="middle">cluster: production</text>
  <!-- Nodes -->
  <rect x="250" y="150" width="450" height="380" rx="12" fill="#1e293b" stroke="#334155" stroke-width="1"/>
  <text x="475" y="180" font-family="monospace" font-size="13" fill="#94a3b8" text-anchor="middle">node-1 (8 CPU, 32GB)</text>
  <rect x="735" y="150" width="450" height="380" rx="12" fill="#1e293b" stroke="#334155" stroke-width="1"/>
  <text x="960" y="180" font-family="monospace" font-size="13" fill="#94a3b8" text-anchor="middle">node-2 (8 CPU, 32GB)</text>
  <rect x="1220" y="150" width="450" height="380" rx="12" fill="#1e293b" stroke="#334155" stroke-width="1"/>
  <text x="1445" y="180" font-family="monospace" font-size="13" fill="#94a3b8" text-anchor="middle">node-3 (8 CPU, 32GB)</text>
  <!-- Pods on node-1 -->
  <rect x="280" y="200" width="180" height="70" rx="8" fill="#1a3a5c" stroke="#326ce5" stroke-width="1.5"/>
  <text x="370" y="230" font-family="monospace" font-size="11" fill="#60a5fa" text-anchor="middle">api-server-7d4f</text>
  <text x="370" y="250" font-family="monospace" font-size="10" fill="#64748b" text-anchor="middle">Running | 2/2 containers</text>
  <rect x="280" y="285" width="180" height="70" rx="8" fill="#1a3a5c" stroke="#326ce5" stroke-width="1.5"/>
  <text x="370" y="315" font-family="monospace" font-size="11" fill="#60a5fa" text-anchor="middle">worker-a3b2</text>
  <text x="370" y="335" font-family="monospace" font-size="10" fill="#64748b" text-anchor="middle">Running | 1/1 containers</text>
  <rect x="280" y="370" width="180" height="70" rx="8" fill="#1a3a5c" stroke="#326ce5" stroke-width="1.5"/>
  <text x="370" y="400" font-family="monospace" font-size="11" fill="#60a5fa" text-anchor="middle">redis-cache-1x9k</text>
  <text x="370" y="420" font-family="monospace" font-size="10" fill="#64748b" text-anchor="middle">Running | 1/1 containers</text>
  <rect x="490" y="200" width="180" height="70" rx="8" fill="#1a3a5c" stroke="#326ce5" stroke-width="1.5"/>
  <text x="580" y="230" font-family="monospace" font-size="11" fill="#60a5fa" text-anchor="middle">api-server-8e5g</text>
  <text x="580" y="250" font-family="monospace" font-size="10" fill="#64748b" text-anchor="middle">Running | 2/2 containers</text>
  <!-- Pods on node-2 -->
  <rect x="765" y="200" width="180" height="70" rx="8" fill="#1a3a5c" stroke="#326ce5" stroke-width="1.5"/>
  <text x="855" y="230" font-family="monospace" font-size="11" fill="#60a5fa" text-anchor="middle">frontend-2k8m</text>
  <text x="855" y="250" font-family="monospace" font-size="10" fill="#64748b" text-anchor="middle">Running | 1/1 containers</text>
  <rect x="765" y="285" width="180" height="70" rx="8" fill="#1a3a5c" stroke="#326ce5" stroke-width="1.5"/>
  <text x="855" y="315" font-family="monospace" font-size="11" fill="#60a5fa" text-anchor="middle">postgres-primary</text>
  <text x="855" y="335" font-family="monospace" font-size="10" fill="#64748b" text-anchor="middle">Running | 1/1 containers</text>
  <rect x="975" y="200" width="180" height="70" rx="8" fill="#1c3322" stroke="#22c55e" stroke-width="1.5"/>
  <text x="1065" y="230" font-family="monospace" font-size="11" fill="#4ade80" text-anchor="middle">monitoring-9f3d</text>
  <text x="1065" y="250" font-family="monospace" font-size="10" fill="#64748b" text-anchor="middle">Running | 3/3 containers</text>
  <!-- Pods on node-3 -->
  <rect x="1250" y="200" width="180" height="70" rx="8" fill="#1a3a5c" stroke="#326ce5" stroke-width="1.5"/>
  <text x="1340" y="230" font-family="monospace" font-size="11" fill="#60a5fa" text-anchor="middle">worker-b7c4</text>
  <text x="1340" y="250" font-family="monospace" font-size="10" fill="#64748b" text-anchor="middle">Running | 1/1 containers</text>
  <rect x="1250" y="285" width="180" height="70" rx="8" fill="#3b1c1c" stroke="#ef4444" stroke-width="1.5"/>
  <text x="1340" y="315" font-family="monospace" font-size="11" fill="#f87171" text-anchor="middle">ml-training-x2f1</text>
  <text x="1340" y="335" font-family="monospace" font-size="10" fill="#64748b" text-anchor="middle">CrashLoopBackOff</text>
  <rect x="1460" y="200" width="180" height="70" rx="8" fill="#1a3a5c" stroke="#326ce5" stroke-width="1.5"/>
  <text x="1550" y="230" font-family="monospace" font-size="11" fill="#60a5fa" text-anchor="middle">ingress-ctrl-4h7j</text>
  <text x="1550" y="250" font-family="monospace" font-size="10" fill="#64748b" text-anchor="middle">Running | 1/1 containers</text>
  <!-- Services -->
  <g transform="translate(0,550)">
    <text x="960" y="30" font-family="monospace" font-size="14" fill="#94a3b8" text-anchor="middle">─── Services ───</text>
    <rect x="300" y="50" width="200" height="50" rx="8" fill="#1e293b" stroke="#f59e0b" stroke-width="1.5"/>
    <text x="400" y="80" font-family="monospace" font-size="12" fill="#fbbf24" text-anchor="middle">svc/api-gateway</text>
    <rect x="560" y="50" width="200" height="50" rx="8" fill="#1e293b" stroke="#f59e0b" stroke-width="1.5"/>
    <text x="660" y="80" font-family="monospace" font-size="12" fill="#fbbf24" text-anchor="middle">svc/frontend</text>
    <rect x="820" y="50" width="200" height="50" rx="8" fill="#1e293b" stroke="#f59e0b" stroke-width="1.5"/>
    <text x="920" y="80" font-family="monospace" font-size="12" fill="#fbbf24" text-anchor="middle">svc/database</text>
    <rect x="1080" y="50" width="200" height="50" rx="8" fill="#1e293b" stroke="#f59e0b" stroke-width="1.5"/>
    <text x="1180" y="80" font-family="monospace" font-size="12" fill="#fbbf24" text-anchor="middle">svc/redis</text>
    <rect x="1340" y="50" width="200" height="50" rx="8" fill="#1e293b" stroke="#f59e0b" stroke-width="1.5"/>
    <text x="1440" y="80" font-family="monospace" font-size="12" fill="#fbbf24" text-anchor="middle">svc/monitoring</text>
  </g>
</svg>
