<svg xmlns="http://www.w3.org/2000/svg" viewBox="0 0 1920 1080">
  <rect width="1920" height="1080" fill="#030712"/>
  <defs>
    <radialGradient id="meshGlow" cx="50%" cy="50%" r="50%">
      <stop offset="0%" style="stop-color:#06b6d4;stop-opacity:0.1"/>
      <stop offset="100%" style="stop-color:#06b6d4;stop-opacity:0"/>
    </radialGradient>
  </defs>
  <rect width="1920" height="1080" fill="url(#meshGlow)"/>
  <!-- Mesh connections -->
  <g stroke="#06b6d4" stroke-width="0.5" opacity="0.3">
    <line x1="200" y1="200" x2="400" y2="100"/><line x1="200" y1="200" x2="500" y2="300"/>
    <line x1="200" y1="200" x2="300" y2="400"/><line x1="400" y1="100" x2="700" y2="150"/>
    <line x1="400" y1="100" x2="500" y2="300"/><line x1="500" y1="300" x2="700" y2="150"/>
    <line x1="500" y1="300" x2="800" y2="400"/><line x1="500" y1="300" x2="300" y2="400"/>
    <line x1="700" y1="150" x2="960" y2="200"/><line x1="700" y1="150" x2="800" y2="400"/>
    <line x1="960" y1="200" x2="1200" y2="150"/><line x1="960" y1="200" x2="800" y2="400"/>
    <line x1="960" y1="200" x2="1100" y2="400"/><line x1="1200" y1="150" x2="1400" y2="200"/>
    <line x1="1200" y1="150" x2="1100" y2="400"/><line x1="1400" y1="200" x2="1600" y2="150"/>
    <line x1="1400" y1="200" x2="1500" y2="400"/><line x1="1600" y1="150" x2="1800" y2="250"/>
    <line x1="1600" y1="150" x2="1500" y2="400"/><line x1="300" y1="400" x2="500" y2="600"/>
    <line x1="800" y1="400" x2="500" y2="600"/><line x1="800" y1="400" x2="960" y2="540"/>
    <line x1="800" y1="400" x2="1100" y2="400"/><line x1="1100" y1="400" x2="960" y2="540"/>
    <line x1="1100" y1="400" x2="1300" y2="600"/><line x1="1500" y1="400" x2="1300" y2="600"/>
    <line x1="1500" y1="400" x2="1700" y2="500"/><line x1="1800" y1="250" x2="1700" y2="500"/>
    <line x1="500" y1="600" x2="400" y2="800"/><line x1="500" y1="600" x2="700" y2="750"/>
    <line x1="500" y1="600" x2="960" y2="540"/><line x1="960" y1="540" x2="700" y2="750"/>
    <line x1="960" y1="540" x2="1300" y2="600"/><line x1="960" y1="540" x2="1000" y2="800"/>
    <line x1="1300" y1="600" x2="1000" y2="800"/><line x1="1300" y1="600" x2="1500" y2="750"/>
    <line x1="1700" y1="500" x2="1500" y2="750"/><line x1="400" y1="800" x2="700" y2="750"/>
    <line x1="400" y1="800" x2="300" y2="950"/><line x1="700" y1="750" x2="1000" y2="800"/>
    <line x1="700" y1="750" x2="600" y2="950"/><line x1="1000" y1="800" x2="1500" y2="750"/>
    <line x1="1000" y1="800" x2="900" y2="1000"/><line x1="1500" y1="750" x2="1700" y2="900"/>
    <line x1="1500" y1="750" x2="1300" y2="950"/>
  </g>
  <!-- Nodes -->
  <g fill="#22d3ee" opacity="0.8">
    <circle cx="200" cy="200" r="4"/><circle cx="400" cy="100" r="3"/><circle cx="500" cy="300" r="4"/>
    <circle cx="700" cy="150" r="3"/><circle cx="300" cy="400" r="3"/><circle cx="960" cy="200" r="4"/>
    <circle cx="800" cy="400" r="3"/><circle cx="1200" cy="150" r="4"/><circle cx="1100" cy="400" r="3"/>
    <circle cx="1400" cy="200" r="3"/><circle cx="1600" cy="150" r="4"/><circle cx="1500" cy="400" r="3"/>
    <circle cx="1800" cy="250" r="3"/><circle cx="500" cy="600" r="4"/><circle cx="960" cy="540" r="6"/>
    <circle cx="1300" cy="600" r="4"/><circle cx="1700" cy="500" r="3"/><circle cx="400" cy="800" r="3"/>
    <circle cx="700" cy="750" r="4"/><circle cx="1000" cy="800" r="4"/><circle cx="1500" cy="750" r="4"/>
  </g>
</svg>
